<?xml version="1.0" standalone="no"?>
<!DOCTYPE svg PUBLIC "-//W3C//DTD SVG 20010904//EN"
 "http://www.w3.org/TR/2001/REC-SVG-20010904/DTD/svg10.dtd">
<svg version="1.0" xmlns="http://www.w3.org/2000/svg"
 width="600.000000pt" height="600.000000pt" viewBox="0 0 600.000000 600.000000"
 preserveAspectRatio="xMidYMid meet">
<metadata>
Created by potrace 1.14, written by Peter Selinger 2001-2017
</metadata>
<g transform="translate(0.000000,600.000000) scale(0.100000,-0.100000)"
fill="#000000" stroke="none">
<path d="M1115 5981 c-48 -22 -79 -54 -100 -103 -13 -33 -15 -137 -15 -828 0
-691 2 -795 15 -828 20 -47 50 -79 97 -103 36 -18 88 -19 1888 -19 1800 0
1852 1 1888 19 43 22 73 53 96 98 14 29 16 115 16 830 l0 799 -22 44 c-50 99
-171 138 -266 88 -31 -18 -329 -259 -408 -333 -6 -5 -31 -26 -54 -45 -24 -19
-57 -47 -74 -62 -17 -14 -86 -72 -154 -128 l-122 -102 -28 24 c-53 44 -63 53
-80 68 -9 9 -55 47 -102 85 -47 39 -96 80 -110 92 -14 11 -59 49 -100 83 -41
34 -84 69 -95 78 -11 9 -51 43 -90 75 -38 32 -92 77 -118 100 -71 61 -123 87
-174 87 -61 0 -97 -18 -178 -86 -39 -32 -78 -66 -89 -74 -10 -8 -23 -20 -30
-25 -6 -6 -78 -67 -161 -135 -82 -69 -161 -134 -175 -146 -71 -62 -247 -207
-260 -214 -11 -6 -26 1 -52 23 -20 18 -45 40 -57 49 -246 204 -393 326 -422
352 -20 17 -53 45 -74 61 -21 17 -43 35 -50 40 -64 59 -144 122 -173 137 -46
23 -116 23 -167 -1z"/>
<path d="M1115 3981 c-48 -22 -79 -54 -100 -103 -13 -33 -15 -239 -15 -1878 0
-1639 2 -1845 15 -1878 21 -49 52 -81 100 -103 38 -18 113 -19 1885 -19 l1846
0 44 23 c26 13 57 40 75 65 26 38 30 53 30 110 0 58 -5 75 -33 122 -27 46
-309 494 -504 800 -60 94 -174 276 -198 315 -14 23 -58 93 -155 245 -157 246
-195 309 -195 321 0 8 25 52 55 97 30 46 55 86 55 88 0 3 9 17 19 32 11 15
101 158 201 317 101 160 197 313 214 340 148 230 196 307 196 311 0 3 11 20
25 38 14 18 25 38 25 44 0 7 3 12 8 12 4 0 12 10 18 23 6 12 64 105 128 207
145 227 137 212 143 270 9 88 -34 166 -112 201 -38 18 -116 19 -1885 19 -1773
0 -1847 -1 -1885 -19z m627 -406 c63 -47 58 75 58 -1587 0 -1681 6 -1547 -68
-1568 -52 -14 -241 -13 -271 3 -16 8 -31 30 -42 62 -17 47 -18 140 -19 1538 0
1383 1 1491 17 1518 29 49 65 60 188 57 92 -3 114 -6 137 -23z"/>
</g>
</svg>
